<svg xmlns="http://www.w3.org/2000/svg" xmlns:xlink="http://www.w3.org/1999/xlink" width="500" zoomAndPan="magnify" viewBox="0 0 375 374.999991" height="500" preserveAspectRatio="xMidYMid meet" version="1.0"><defs><clipPath id="db4e09ab16"><path d="M 0 0 L 374.578125 0 L 374.578125 374.578125 L 0 374.578125 Z M 0 0 " clip-rule="nonzero"/></clipPath><clipPath id="1474694eec"><path d="M 3.46875 3.46875 L 371.289062 3.46875 L 371.289062 371.289062 L 3.46875 371.289062 Z M 3.46875 3.46875 " clip-rule="nonzero"/></clipPath></defs><g clip-path="url(#db4e09ab16)"><path fill="#00c2cb" d="M 311.269531 275.917969 C 309.824219 278.015625 307.777344 278.792969 305.070312 278.695312 C 300.949219 278.546875 296.820312 278.6875 292.691406 278.652344 C 289.015625 278.617188 287.582031 277.304688 287.582031 273.949219 C 287.554688 265.796875 287.570312 257.644531 287.570312 249.492188 C 287.570312 248.542969 287.570312 247.59375 287.570312 246.367188 C 216.484375 246.367188 164.742188 246.367188 93.765625 246.367188 C 93.765625 231.71875 93.765625 217.25 93.765625 202.664062 C 94.332031 203.90625 95.238281 205.082031 96.492188 206.191406 C 104.496094 213.261719 112.535156 220.316406 120.628906 227.300781 C 124.609375 230.742188 129.921875 230.472656 133.265625 226.882812 C 134.039062 226.980469 134.851562 227.039062 135.710938 227.039062 C 185.558594 227.050781 235.402344 227.050781 285.253906 227.039062 C 293.109375 227.039062 297.507812 223.050781 297.5625 215.839844 C 297.605469 209.464844 297.554688 203.089844 297.578125 196.714844 C 297.597656 193.464844 298.988281 192.210938 302.527344 192.160156 C 303.398438 192.140625 304.292969 192.238281 305.15625 192.132812 C 307.71875 191.855469 309.773438 192.578125 311.269531 194.527344 C 311.269531 221.65625 311.269531 248.796875 311.269531 275.917969 Z M 85.589844 272.234375 C 85.589844 277.824219 84.910156 278.660156 80.398438 278.660156 C 76.285156 278.652344 72.167969 278.660156 68.054688 278.652344 C 64.257812 278.644531 63.308594 277.496094 63.308594 272.808594 C 63.308594 245.191406 63.308594 217.582031 63.308594 189.964844 C 63.308594 162.945312 63.308594 135.9375 63.308594 108.921875 C 63.308594 101.5625 63.632812 101.160156 69.648438 101.160156 C 73.4375 101.152344 77.234375 101.152344 81.035156 101.160156 C 84.699219 101.171875 85.589844 102.242188 85.589844 106.839844 C 85.597656 134.660156 85.597656 162.46875 85.597656 190.285156 C 85.597656 217.597656 85.589844 244.921875 85.589844 272.234375 Z M 94.847656 186.523438 C 98.0625 179.171875 101.371094 171.855469 104.558594 164.496094 C 105.089844 163.277344 105.410156 161.902344 105.5 160.578125 C 105.847656 155.257812 107.886719 150.753906 111.734375 147.09375 C 112.292969 146.574219 113.121094 146.042969 113.824219 146.023438 C 123.039062 145.804688 130.058594 141.730469 135.144531 134.136719 C 135.222656 134.023438 135.382812 133.960938 135.957031 133.550781 C 137.65625 135.007812 139.394531 136.636719 141.285156 138.0625 C 142.175781 138.734375 143.339844 139.363281 144.402344 139.394531 C 150.238281 139.585938 156.082031 139.65625 161.917969 139.597656 C 162.859375 139.585938 164.035156 138.953125 164.699219 138.230469 C 166.324219 136.460938 167.71875 134.476562 168.859375 133.019531 C 171.246094 134.179688 173.269531 135.652344 175.507812 136.140625 C 179.722656 137.0625 183.710938 134.128906 185.035156 129.582031 C 186.53125 124.433594 187.960938 119.261719 189.46875 113.914062 C 192.613281 114.3125 194.773438 115.898438 196.148438 118.519531 C 197.800781 121.664062 197.664062 124.851562 195.640625 127.777344 C 193.789062 130.453125 191.707031 132.96875 189.703125 135.539062 C 185.191406 141.347656 180.574219 147.078125 176.195312 152.972656 C 173.667969 156.386719 170.578125 158.121094 166.308594 157.773438 C 164.722656 157.644531 163.121094 157.746094 161.996094 157.746094 C 169.390625 165.117188 176.996094 172.703125 184.753906 180.445312 C 191.617188 175.410156 199.074219 169.949219 206.519531 164.472656 C 212.992188 159.707031 218.15625 160.300781 223.363281 166.371094 C 232.34375 176.847656 241.324219 187.324219 250.382812 197.742188 C 251.007812 198.464844 252.246094 199.039062 253.203125 199.046875 C 261.84375 199.136719 270.5 199.292969 279.132812 199.003906 C 285.558594 198.785156 289.941406 201.136719 292.082031 207.296875 C 292.082031 208.8125 292.082031 210.328125 292.082031 211.851562 C 289.835938 217.78125 285.410156 219.707031 279.261719 219.679688 C 241.882812 219.550781 204.5 219.578125 167.109375 219.664062 C 161.058594 219.671875 156.101562 217.730469 151.773438 213.539062 C 141.519531 203.636719 131.15625 193.839844 120.792969 184.050781 C 119.757812 183.066406 119.609375 182.230469 120 180.898438 C 121.472656 175.90625 122.8125 170.882812 123.789062 165.707031 C 120.460938 173.199219 117.132812 180.6875 113.753906 188.308594 C 118.761719 192.707031 123.71875 197.042969 128.667969 201.382812 C 130.207031 202.730469 131.777344 204.046875 133.28125 205.441406 C 137.113281 209.011719 137.507812 214.558594 134.222656 218.304688 C 130.894531 222.101562 125.445312 222.441406 121.394531 218.933594 C 113.300781 211.945312 105.261719 204.890625 97.25 197.820312 C 93.664062 194.648438 92.90625 190.964844 94.847656 186.523438 Z M 113.921875 101.1875 C 124.832031 101.285156 133.421875 110.054688 133.324219 121.011719 C 133.238281 131.90625 124.460938 140.511719 113.503906 140.441406 C 102.652344 140.371094 94.003906 131.53125 94.082031 120.59375 C 94.160156 109.714844 102.980469 101.082031 113.921875 101.1875 Z M 172.605469 125.894531 C 175.097656 117.082031 177.613281 108.277344 180.105469 99.453125 C 180.707031 97.320312 182.03125 96.015625 184.257812 95.882812 C 186.960938 95.71875 189.285156 98.347656 188.554688 101.023438 C 186 110.375 183.34375 119.695312 180.628906 128.988281 C 179.972656 131.234375 178.039062 132.203125 175.820312 131.835938 C 173.789062 131.503906 172.371094 129.808594 172.335938 127.351562 C 172.386719 127.082031 172.441406 126.480469 172.605469 125.894531 Z M 187.289062 0 C 84.011719 0 0 84.011719 0 187.289062 C 0 290.566406 84.011719 374.578125 187.289062 374.578125 C 290.566406 374.578125 374.578125 290.566406 374.578125 187.289062 C 374.578125 84.011719 290.566406 0 187.289062 0 " fill-opacity="1" fill-rule="nonzero"/></g><path fill="#00c2cb" d="M 212.574219 186.175781 C 206.753906 190.460938 201.121094 194.597656 195.050781 199.074219 C 204.796875 199.074219 213.921875 199.074219 223.636719 199.074219 C 219.8125 194.605469 216.230469 190.433594 212.574219 186.175781 " fill-opacity="1" fill-rule="nonzero"/><path fill="#004aad" d="M 68.605469 189.9375 C 68.605469 164.054688 68.605469 138.175781 68.605469 112.304688 C 68.605469 105.25 68.910156 104.875 74.675781 104.867188 C 78.3125 104.867188 81.945312 104.855469 85.582031 104.867188 C 89.09375 104.875 89.941406 105.902344 89.949219 110.304688 C 89.960938 136.953125 89.949219 163.601562 89.949219 190.253906 C 89.949219 216.421875 89.949219 242.582031 89.949219 268.753906 C 89.949219 274.109375 89.300781 274.910156 84.980469 274.910156 C 81.03125 274.910156 77.097656 274.910156 73.144531 274.902344 C 69.511719 274.894531 68.613281 273.792969 68.605469 269.300781 C 68.605469 242.847656 68.605469 216.398438 68.605469 189.9375 " fill-opacity="1" fill-rule="nonzero"/><path fill="#004aad" d="M 300.296875 192.023438 C 299.464844 192.117188 298.617188 192.03125 297.773438 192.039062 C 294.394531 192.089844 293.050781 193.296875 293.035156 196.402344 C 293.007812 202.507812 293.058594 208.621094 293.015625 214.730469 C 292.964844 221.640625 288.75 225.460938 281.222656 225.460938 C 233.476562 225.460938 185.71875 225.460938 137.964844 225.460938 C 137.140625 225.460938 136.363281 225.402344 135.621094 225.308594 C 132.421875 228.746094 127.332031 229.011719 123.519531 225.710938 C 115.769531 219.015625 108.0625 212.257812 100.394531 205.484375 C 99.1875 204.421875 98.332031 203.292969 97.785156 202.105469 C 97.785156 216.082031 97.785156 229.945312 97.785156 243.976562 C 165.777344 243.976562 215.34375 243.976562 283.445312 243.976562 C 283.445312 245.15625 283.445312 246.066406 283.445312 246.972656 C 283.445312 254.78125 283.429688 262.585938 283.457031 270.394531 C 283.464844 273.613281 284.832031 274.867188 288.355469 274.902344 C 292.308594 274.9375 296.265625 274.808594 300.210938 274.945312 C 302.808594 275.039062 304.769531 274.296875 306.152344 272.285156 C 306.152344 246.296875 306.152344 220.304688 306.152344 194.316406 C 304.714844 192.441406 302.742188 191.75 300.296875 192.023438 " fill-opacity="1" fill-rule="nonzero"/><path fill="#004aad" d="M 222.195312 198.667969 C 218.527344 194.390625 215.105469 190.398438 211.597656 186.308594 C 206.023438 190.414062 200.632812 194.375 194.8125 198.667969 C 204.148438 198.667969 212.890625 198.667969 222.195312 198.667969 Z M 287.765625 210.898438 C 285.621094 216.59375 281.378906 218.433594 275.492188 218.40625 C 239.675781 218.277344 203.859375 218.304688 168.050781 218.390625 C 162.25 218.40625 157.496094 216.542969 153.347656 212.523438 C 143.53125 203.039062 133.609375 193.65625 123.679688 184.273438 C 122.679688 183.332031 122.535156 182.53125 122.910156 181.253906 C 124.332031 176.472656 125.605469 171.652344 126.546875 166.707031 C 123.355469 173.882812 120.175781 181.050781 116.933594 188.355469 C 121.730469 192.5625 126.476562 196.71875 131.214844 200.875 C 132.695312 202.175781 134.199219 203.429688 135.636719 204.765625 C 139.316406 208.1875 139.683594 213.507812 136.542969 217.089844 C 133.355469 220.734375 128.128906 221.050781 124.246094 217.695312 C 116.496094 210.992188 108.792969 204.242188 101.121094 197.460938 C 97.683594 194.425781 96.964844 190.902344 98.820312 186.644531 C 101.898438 179.605469 105.070312 172.589844 108.125 165.542969 C 108.628906 164.371094 108.9375 163.054688 109.023438 161.789062 C 109.355469 156.691406 111.304688 152.375 115 148.875 C 115.53125 148.371094 116.316406 147.859375 117 147.839844 C 125.828125 147.636719 132.558594 143.726562 137.425781 136.457031 C 137.5 136.347656 137.648438 136.296875 138.203125 135.894531 C 139.828125 137.289062 141.496094 138.851562 143.308594 140.222656 C 144.15625 140.863281 145.277344 141.460938 146.292969 141.496094 C 151.886719 141.683594 157.480469 141.742188 163.074219 141.691406 C 163.980469 141.683594 165.101562 141.066406 165.734375 140.375 C 167.296875 138.691406 168.632812 136.792969 169.726562 135.390625 C 172.011719 136.5 173.941406 137.902344 176.089844 138.375 C 180.125 139.261719 183.949219 136.449219 185.222656 132.085938 C 186.660156 127.152344 188.019531 122.203125 189.464844 117.085938 C 192.476562 117.472656 194.546875 118.996094 195.863281 121.492188 C 197.453125 124.511719 197.316406 127.570312 195.375 130.359375 C 193.605469 132.925781 191.601562 135.335938 189.6875 137.800781 C 185.367188 143.359375 180.949219 148.851562 176.75 154.503906 C 174.328125 157.777344 171.359375 159.4375 167.273438 159.105469 C 165.757812 158.976562 164.226562 159.078125 163.148438 159.078125 C 170.230469 166.132812 177.519531 173.402344 184.957031 180.820312 C 191.527344 175.996094 198.667969 170.761719 205.800781 165.519531 C 212 160.960938 216.953125 161.523438 221.9375 167.339844 C 230.542969 177.382812 239.144531 187.414062 247.816406 197.394531 C 248.425781 198.085938 249.605469 198.632812 250.527344 198.640625 C 258.808594 198.726562 267.09375 198.871094 275.363281 198.597656 C 281.523438 198.394531 285.714844 200.644531 287.765625 206.542969 C 287.765625 208 287.765625 209.453125 287.765625 210.898438 " fill-opacity="1" fill-rule="nonzero"/><path fill="#004aad" d="M 117.085938 104.890625 C 127.546875 104.984375 135.773438 113.382812 135.6875 123.878906 C 135.59375 134.320312 127.1875 142.5625 116.683594 142.496094 C 106.292969 142.4375 98.007812 133.96875 98.082031 123.484375 C 98.152344 113.066406 106.609375 104.789062 117.085938 104.890625 " fill-opacity="1" fill-rule="nonzero"/><path fill="#004aad" d="M 173.054688 129.957031 C 173.097656 129.703125 173.15625 129.121094 173.308594 128.5625 C 175.695312 120.125 178.109375 111.683594 180.492188 103.230469 C 181.066406 101.1875 182.332031 99.941406 184.472656 99.8125 C 187.0625 99.648438 189.285156 102.179688 188.59375 104.738281 C 186.148438 113.691406 183.597656 122.621094 181 131.523438 C 180.367188 133.679688 178.519531 134.601562 176.390625 134.25 C 174.449219 133.933594 173.078125 132.308594 173.054688 129.957031 " fill-opacity="1" fill-rule="nonzero"/><g clip-path="url(#1474694eec)"><path fill="#004aad" d="M 187.378906 17.09375 C 93.484375 17.09375 17.09375 93.484375 17.09375 187.378906 C 17.09375 281.273438 93.484375 357.664062 187.378906 357.664062 C 281.273438 357.664062 357.664062 281.273438 357.664062 187.378906 C 357.664062 93.484375 281.273438 17.09375 187.378906 17.09375 Z M 187.378906 371.289062 C 85.972656 371.289062 3.46875 288.785156 3.46875 187.378906 C 3.46875 85.972656 85.972656 3.46875 187.378906 3.46875 C 288.785156 3.46875 371.289062 85.972656 371.289062 187.378906 C 371.289062 288.785156 288.785156 371.289062 187.378906 371.289062 " fill-opacity="1" fill-rule="nonzero"/></g></svg>