<svg xmlns="http://www.w3.org/2000/svg" xmlns:xlink="http://www.w3.org/1999/xlink" width="200" zoomAndPan="magnify" viewBox="0 0 150 30.000001" height="40" preserveAspectRatio="xMidYMid meet" version="1.0"><defs><g/></defs><g fill="#004aad" fill-opacity="1"><g transform="translate(11.322269, 17.78226)"><g><path d="M 0.3125 -7.09375 L 0.3125 -8.078125 L 3.65625 -8.078125 L 3.65625 -7.09375 L 2.796875 -6.9375 L 2.796875 -4.609375 L 6.078125 -4.609375 L 6.078125 -6.9375 L 5.21875 -7.09375 L 5.21875 -8.078125 L 8.5625 -8.078125 L 8.5625 -7.09375 L 7.703125 -6.9375 L 7.703125 -1.140625 L 8.5625 -0.96875 L 8.5625 0 L 5.21875 0 L 5.21875 -0.96875 L 6.078125 -1.140625 L 6.078125 -3.359375 L 2.796875 -3.359375 L 2.796875 -1.140625 L 3.65625 -0.96875 L 3.65625 0 L 0.3125 0 L 0.3125 -0.96875 L 1.171875 -1.140625 L 1.171875 -6.9375 Z M 0.3125 -7.09375 "/></g></g></g><g fill="#004aad" fill-opacity="1"><g transform="translate(20.19662, 17.78226)"><g><path d="M 0.34375 -3.0625 C 0.34375 -3.945312 0.59375 -4.675781 1.09375 -5.25 C 1.601562 -5.820312 2.296875 -6.109375 3.171875 -6.109375 C 4.066406 -6.109375 4.765625 -5.820312 5.265625 -5.25 C 5.765625 -4.6875 6.015625 -3.957031 6.015625 -3.0625 L 6.015625 -2.9375 C 6.015625 -2.039062 5.765625 -1.304688 5.265625 -0.734375 C 4.765625 -0.171875 4.070312 0.109375 3.1875 0.109375 C 2.300781 0.109375 1.601562 -0.171875 1.09375 -0.734375 C 0.59375 -1.304688 0.34375 -2.039062 0.34375 -2.9375 Z M 1.96875 -2.9375 C 1.96875 -2.394531 2.0625 -1.957031 2.25 -1.625 C 2.445312 -1.289062 2.757812 -1.125 3.1875 -1.125 C 3.601562 -1.125 3.90625 -1.289062 4.09375 -1.625 C 4.289062 -1.957031 4.390625 -2.394531 4.390625 -2.9375 L 4.390625 -3.0625 C 4.390625 -3.59375 4.289062 -4.023438 4.09375 -4.359375 C 3.90625 -4.691406 3.597656 -4.859375 3.171875 -4.859375 C 2.753906 -4.859375 2.445312 -4.691406 2.25 -4.359375 C 2.0625 -4.023438 1.96875 -3.59375 1.96875 -3.0625 Z M 1.96875 -2.9375 "/></g></g></g><g fill="#004aad" fill-opacity="1"><g transform="translate(26.559985, 17.78226)"><g><path d="M 5.25 -3.9375 L 4.15625 -3.9375 L 3.984375 -4.6875 C 3.878906 -4.769531 3.738281 -4.84375 3.5625 -4.90625 C 3.394531 -4.96875 3.210938 -5 3.015625 -5 C 2.722656 -5 2.492188 -4.929688 2.328125 -4.796875 C 2.160156 -4.671875 2.078125 -4.515625 2.078125 -4.328125 C 2.078125 -4.140625 2.15625 -3.984375 2.3125 -3.859375 C 2.476562 -3.742188 2.800781 -3.644531 3.28125 -3.5625 C 4.019531 -3.40625 4.566406 -3.179688 4.921875 -2.890625 C 5.285156 -2.609375 5.46875 -2.21875 5.46875 -1.71875 C 5.46875 -1.175781 5.234375 -0.734375 4.765625 -0.390625 C 4.304688 -0.0546875 3.695312 0.109375 2.9375 0.109375 C 2.476562 0.109375 2.054688 0.046875 1.671875 -0.078125 C 1.285156 -0.210938 0.941406 -0.410156 0.640625 -0.671875 L 0.625 -2.015625 L 1.75 -2.015625 L 1.96875 -1.234375 C 2.070312 -1.148438 2.207031 -1.085938 2.375 -1.046875 C 2.539062 -1.015625 2.710938 -1 2.890625 -1 C 3.222656 -1 3.472656 -1.054688 3.640625 -1.171875 C 3.816406 -1.285156 3.90625 -1.445312 3.90625 -1.65625 C 3.90625 -1.832031 3.816406 -1.984375 3.640625 -2.109375 C 3.460938 -2.242188 3.140625 -2.359375 2.671875 -2.453125 C 1.972656 -2.597656 1.441406 -2.8125 1.078125 -3.09375 C 0.710938 -3.375 0.53125 -3.757812 0.53125 -4.25 C 0.53125 -4.757812 0.738281 -5.191406 1.15625 -5.546875 C 1.570312 -5.910156 2.160156 -6.09375 2.921875 -6.09375 C 3.390625 -6.09375 3.832031 -6.03125 4.25 -5.90625 C 4.664062 -5.78125 4.992188 -5.625 5.234375 -5.4375 Z M 5.25 -3.9375 "/></g></g></g><g fill="#004aad" fill-opacity="1"><g transform="translate(32.402308, 17.78226)"><g><path d="M 2.734375 -7.46875 L 2.734375 -6 L 3.796875 -6 L 3.796875 -4.859375 L 2.734375 -4.859375 L 2.734375 -1.8125 C 2.734375 -1.570312 2.78125 -1.398438 2.875 -1.296875 C 2.976562 -1.203125 3.109375 -1.15625 3.265625 -1.15625 C 3.378906 -1.15625 3.476562 -1.160156 3.5625 -1.171875 C 3.644531 -1.179688 3.738281 -1.195312 3.84375 -1.21875 L 3.984375 -0.046875 C 3.796875 0.00390625 3.613281 0.0390625 3.4375 0.0625 C 3.257812 0.09375 3.070312 0.109375 2.875 0.109375 C 2.3125 0.109375 1.878906 -0.0390625 1.578125 -0.34375 C 1.273438 -0.644531 1.125 -1.128906 1.125 -1.796875 L 1.125 -4.859375 L 0.25 -4.859375 L 0.25 -6 L 1.125 -6 L 1.125 -7.46875 Z M 2.734375 -7.46875 "/></g></g></g><g fill="#004aad" fill-opacity="1"><g transform="translate(36.637161, 17.78226)"><g><path d="M 3.21875 0.109375 C 2.351562 0.109375 1.660156 -0.164062 1.140625 -0.71875 C 0.628906 -1.269531 0.375 -1.972656 0.375 -2.828125 L 0.375 -3.046875 C 0.375 -3.941406 0.617188 -4.675781 1.109375 -5.25 C 1.597656 -5.832031 2.253906 -6.117188 3.078125 -6.109375 C 3.890625 -6.109375 4.519531 -5.863281 4.96875 -5.375 C 5.414062 -4.882812 5.640625 -4.226562 5.640625 -3.40625 L 5.640625 -2.515625 L 2.046875 -2.515625 L 2.046875 -2.484375 C 2.066406 -2.085938 2.195312 -1.757812 2.4375 -1.5 C 2.675781 -1.25 2.992188 -1.125 3.390625 -1.125 C 3.753906 -1.125 4.050781 -1.160156 4.28125 -1.234375 C 4.519531 -1.304688 4.78125 -1.421875 5.0625 -1.578125 L 5.5 -0.578125 C 5.25 -0.378906 4.925781 -0.210938 4.53125 -0.078125 C 4.144531 0.046875 3.707031 0.109375 3.21875 0.109375 Z M 3.078125 -4.859375 C 2.773438 -4.859375 2.535156 -4.742188 2.359375 -4.515625 C 2.191406 -4.285156 2.085938 -3.984375 2.046875 -3.609375 L 2.0625 -3.59375 L 4.046875 -3.59375 L 4.046875 -3.734375 C 4.046875 -4.078125 3.960938 -4.347656 3.796875 -4.546875 C 3.640625 -4.753906 3.398438 -4.859375 3.078125 -4.859375 Z M 3.078125 -4.859375 "/></g></g></g><g fill="#004aad" fill-opacity="1"><g transform="translate(42.684581, 17.78226)"><g><path d="M 0.171875 -7.671875 L 0.171875 -8.65625 L 2.65625 -8.65625 L 2.65625 -1.140625 L 3.4375 -0.96875 L 3.4375 0 L 0.265625 0 L 0.265625 -0.96875 L 1.046875 -1.140625 L 1.046875 -7.515625 Z M 0.171875 -7.671875 "/></g></g></g><g fill="#004aad" fill-opacity="1"><g transform="translate(46.304166, 17.78226)"><g/></g></g><g fill="#004aad" fill-opacity="1"><g transform="translate(49.086753, 17.78226)"><g><path d="M 8.109375 -5.96875 L 8.0625 -5.984375 L 5.90625 0 L 4.8125 0 L 2.671875 -5.953125 L 2.640625 -5.953125 L 2.796875 -2.40625 L 2.796875 -1.140625 L 3.65625 -0.96875 L 3.65625 0 L 0.3125 0 L 0.3125 -0.96875 L 1.171875 -1.140625 L 1.171875 -6.9375 L 0.3125 -7.09375 L 0.3125 -8.078125 L 3.28125 -8.078125 L 5.34375 -2.125 L 5.375 -2.125 L 7.453125 -8.078125 L 10.4375 -8.078125 L 10.4375 -7.09375 L 9.5625 -6.9375 L 9.5625 -1.140625 L 10.4375 -0.96875 L 10.4375 0 L 7.09375 0 L 7.09375 -0.96875 L 7.953125 -1.140625 L 7.953125 -2.40625 Z M 8.109375 -5.96875 "/></g></g></g><g fill="#004aad" fill-opacity="1"><g transform="translate(59.779208, 17.78226)"><g><path d="M 4.171875 0 C 4.128906 -0.101562 4.085938 -0.207031 4.046875 -0.3125 C 4.015625 -0.414062 3.992188 -0.519531 3.984375 -0.625 C 3.785156 -0.40625 3.546875 -0.226562 3.265625 -0.09375 C 2.992188 0.0390625 2.679688 0.109375 2.328125 0.109375 C 1.742188 0.109375 1.273438 -0.046875 0.921875 -0.359375 C 0.578125 -0.679688 0.40625 -1.117188 0.40625 -1.671875 C 0.40625 -2.234375 0.628906 -2.664062 1.078125 -2.96875 C 1.535156 -3.28125 2.203125 -3.4375 3.078125 -3.4375 L 3.90625 -3.4375 L 3.90625 -4.015625 C 3.90625 -4.304688 3.820312 -4.53125 3.65625 -4.6875 C 3.488281 -4.851562 3.238281 -4.9375 2.90625 -4.9375 C 2.726562 -4.9375 2.566406 -4.910156 2.421875 -4.859375 C 2.273438 -4.816406 2.15625 -4.769531 2.0625 -4.71875 L 1.96875 -4.078125 L 0.75 -4.078125 L 0.75 -5.40625 C 1.039062 -5.601562 1.378906 -5.769531 1.765625 -5.90625 C 2.148438 -6.039062 2.566406 -6.109375 3.015625 -6.109375 C 3.753906 -6.109375 4.359375 -5.925781 4.828125 -5.5625 C 5.296875 -5.195312 5.53125 -4.679688 5.53125 -4.015625 L 5.53125 -1.53125 C 5.53125 -1.4375 5.53125 -1.347656 5.53125 -1.265625 C 5.53125 -1.179688 5.535156 -1.101562 5.546875 -1.03125 L 6.046875 -0.96875 L 6.046875 0 Z M 2.765625 -1.078125 C 3.015625 -1.078125 3.238281 -1.128906 3.4375 -1.234375 C 3.632812 -1.335938 3.789062 -1.472656 3.90625 -1.640625 L 3.90625 -2.546875 L 3.078125 -2.546875 C 2.734375 -2.546875 2.472656 -2.460938 2.296875 -2.296875 C 2.117188 -2.140625 2.03125 -1.953125 2.03125 -1.734375 C 2.03125 -1.523438 2.09375 -1.363281 2.21875 -1.25 C 2.351562 -1.132812 2.535156 -1.078125 2.765625 -1.078125 Z M 2.765625 -1.078125 "/></g></g></g><g fill="#004aad" fill-opacity="1"><g transform="translate(66.01509, 17.78226)"><g><path d="M 0.265625 -0.96875 L 1.03125 -1.140625 L 1.03125 -4.859375 L 0.171875 -5.03125 L 0.171875 -6 L 2.546875 -6 L 2.625 -5.140625 C 2.820312 -5.453125 3.066406 -5.691406 3.359375 -5.859375 C 3.648438 -6.023438 3.976562 -6.109375 4.34375 -6.109375 C 4.945312 -6.109375 5.414062 -5.914062 5.75 -5.53125 C 6.09375 -5.15625 6.265625 -4.5625 6.265625 -3.75 L 6.265625 -1.140625 L 7.046875 -0.96875 L 7.046875 0 L 3.953125 0 L 3.953125 -0.96875 L 4.640625 -1.140625 L 4.640625 -3.75 C 4.640625 -4.144531 4.554688 -4.425781 4.390625 -4.59375 C 4.234375 -4.769531 3.988281 -4.859375 3.65625 -4.859375 C 3.445312 -4.859375 3.253906 -4.8125 3.078125 -4.71875 C 2.910156 -4.632812 2.769531 -4.515625 2.65625 -4.359375 L 2.65625 -1.140625 L 3.3125 -0.96875 L 3.3125 0 L 0.265625 0 Z M 0.265625 -0.96875 "/></g></g></g><g fill="#004aad" fill-opacity="1"><g transform="translate(73.220991, 17.78226)"><g><path d="M 4.171875 0 C 4.128906 -0.101562 4.085938 -0.207031 4.046875 -0.3125 C 4.015625 -0.414062 3.992188 -0.519531 3.984375 -0.625 C 3.785156 -0.40625 3.546875 -0.226562 3.265625 -0.09375 C 2.992188 0.0390625 2.679688 0.109375 2.328125 0.109375 C 1.742188 0.109375 1.273438 -0.046875 0.921875 -0.359375 C 0.578125 -0.679688 0.40625 -1.117188 0.40625 -1.671875 C 0.40625 -2.234375 0.628906 -2.664062 1.078125 -2.96875 C 1.535156 -3.28125 2.203125 -3.4375 3.078125 -3.4375 L 3.90625 -3.4375 L 3.90625 -4.015625 C 3.90625 -4.304688 3.820312 -4.53125 3.65625 -4.6875 C 3.488281 -4.851562 3.238281 -4.9375 2.90625 -4.9375 C 2.726562 -4.9375 2.566406 -4.910156 2.421875 -4.859375 C 2.273438 -4.816406 2.15625 -4.769531 2.0625 -4.71875 L 1.96875 -4.078125 L 0.75 -4.078125 L 0.75 -5.40625 C 1.039062 -5.601562 1.378906 -5.769531 1.765625 -5.90625 C 2.148438 -6.039062 2.566406 -6.109375 3.015625 -6.109375 C 3.753906 -6.109375 4.359375 -5.925781 4.828125 -5.5625 C 5.296875 -5.195312 5.53125 -4.679688 5.53125 -4.015625 L 5.53125 -1.53125 C 5.53125 -1.4375 5.53125 -1.347656 5.53125 -1.265625 C 5.53125 -1.179688 5.535156 -1.101562 5.546875 -1.03125 L 6.046875 -0.96875 L 6.046875 0 Z M 2.765625 -1.078125 C 3.015625 -1.078125 3.238281 -1.128906 3.4375 -1.234375 C 3.632812 -1.335938 3.789062 -1.472656 3.90625 -1.640625 L 3.90625 -2.546875 L 3.078125 -2.546875 C 2.734375 -2.546875 2.472656 -2.460938 2.296875 -2.296875 C 2.117188 -2.140625 2.03125 -1.953125 2.03125 -1.734375 C 2.03125 -1.523438 2.09375 -1.363281 2.21875 -1.25 C 2.351562 -1.132812 2.535156 -1.078125 2.765625 -1.078125 Z M 2.765625 -1.078125 "/></g></g></g><g fill="#004aad" fill-opacity="1"><g transform="translate(79.456873, 17.78226)"><g><path d="M 0.453125 -2.953125 C 0.453125 -3.898438 0.65625 -4.660156 1.0625 -5.234375 C 1.476562 -5.816406 2.054688 -6.109375 2.796875 -6.109375 C 3.140625 -6.109375 3.4375 -6.03125 3.6875 -5.875 C 3.945312 -5.726562 4.164062 -5.519531 4.34375 -5.25 L 4.453125 -6 L 5.875 -6 L 5.875 -0.171875 C 5.875 0.617188 5.625 1.25 5.125 1.71875 C 4.625 2.1875 3.941406 2.421875 3.078125 2.421875 C 2.773438 2.421875 2.453125 2.378906 2.109375 2.296875 C 1.765625 2.210938 1.453125 2.097656 1.171875 1.953125 L 1.46875 0.828125 C 1.726562 0.929688 1.984375 1.015625 2.234375 1.078125 C 2.492188 1.148438 2.769531 1.1875 3.0625 1.1875 C 3.457031 1.1875 3.753906 1.0625 3.953125 0.8125 C 4.148438 0.570312 4.25 0.238281 4.25 -0.1875 L 4.25 -0.578125 C 4.070312 -0.347656 3.859375 -0.175781 3.609375 -0.0625 C 3.367188 0.0507812 3.097656 0.109375 2.796875 0.109375 C 2.054688 0.109375 1.476562 -0.160156 1.0625 -0.703125 C 0.65625 -1.242188 0.453125 -1.953125 0.453125 -2.828125 Z M 2.0625 -2.828125 C 2.0625 -2.304688 2.148438 -1.894531 2.328125 -1.59375 C 2.503906 -1.289062 2.796875 -1.140625 3.203125 -1.140625 C 3.453125 -1.140625 3.660156 -1.1875 3.828125 -1.28125 C 4.003906 -1.375 4.144531 -1.503906 4.25 -1.671875 L 4.25 -4.28125 C 4.144531 -4.457031 4.003906 -4.597656 3.828125 -4.703125 C 3.660156 -4.804688 3.457031 -4.859375 3.21875 -4.859375 C 2.820312 -4.859375 2.53125 -4.679688 2.34375 -4.328125 C 2.15625 -3.972656 2.0625 -3.515625 2.0625 -2.953125 Z M 2.0625 -2.828125 "/></g></g></g><g fill="#004aad" fill-opacity="1"><g transform="translate(85.942184, 17.78226)"><g><path d="M 0.15625 -5.03125 L 0.15625 -6 L 2.53125 -6 L 2.59375 -5.203125 C 2.789062 -5.492188 3.03125 -5.71875 3.3125 -5.875 C 3.601562 -6.03125 3.941406 -6.109375 4.328125 -6.109375 C 4.710938 -6.109375 5.039062 -6.023438 5.3125 -5.859375 C 5.582031 -5.691406 5.789062 -5.4375 5.9375 -5.09375 C 6.125 -5.40625 6.363281 -5.648438 6.65625 -5.828125 C 6.945312 -6.015625 7.296875 -6.109375 7.703125 -6.109375 C 8.296875 -6.109375 8.757812 -5.90625 9.09375 -5.5 C 9.4375 -5.09375 9.609375 -4.472656 9.609375 -3.640625 L 9.609375 -1.140625 L 10.390625 -0.96875 L 10.390625 0 L 7.296875 0 L 7.296875 -0.96875 L 8 -1.140625 L 8 -3.640625 C 8 -4.097656 7.921875 -4.414062 7.765625 -4.59375 C 7.617188 -4.769531 7.398438 -4.859375 7.109375 -4.859375 C 6.878906 -4.859375 6.679688 -4.804688 6.515625 -4.703125 C 6.347656 -4.597656 6.210938 -4.457031 6.109375 -4.28125 C 6.109375 -4.207031 6.109375 -4.144531 6.109375 -4.09375 C 6.117188 -4.039062 6.125 -3.988281 6.125 -3.9375 L 6.125 -1.140625 L 6.78125 -0.96875 L 6.78125 0 L 3.859375 0 L 3.859375 -0.96875 L 4.515625 -1.140625 L 4.515625 -3.640625 C 4.515625 -4.078125 4.4375 -4.390625 4.28125 -4.578125 C 4.132812 -4.765625 3.914062 -4.859375 3.625 -4.859375 C 3.40625 -4.859375 3.210938 -4.816406 3.046875 -4.734375 C 2.878906 -4.648438 2.742188 -4.53125 2.640625 -4.375 L 2.640625 -1.140625 L 3.34375 -0.96875 L 3.34375 0 L 0.25 0 L 0.25 -0.96875 L 1.03125 -1.140625 L 1.03125 -4.859375 Z M 0.15625 -5.03125 "/></g></g></g><g fill="#004aad" fill-opacity="1"><g transform="translate(96.501607, 17.78226)"><g><path d="M 3.21875 0.109375 C 2.351562 0.109375 1.660156 -0.164062 1.140625 -0.71875 C 0.628906 -1.269531 0.375 -1.972656 0.375 -2.828125 L 0.375 -3.046875 C 0.375 -3.941406 0.617188 -4.675781 1.109375 -5.25 C 1.597656 -5.832031 2.253906 -6.117188 3.078125 -6.109375 C 3.890625 -6.109375 4.519531 -5.863281 4.96875 -5.375 C 5.414062 -4.882812 5.640625 -4.226562 5.640625 -3.40625 L 5.640625 -2.515625 L 2.046875 -2.515625 L 2.046875 -2.484375 C 2.066406 -2.085938 2.195312 -1.757812 2.4375 -1.5 C 2.675781 -1.25 2.992188 -1.125 3.390625 -1.125 C 3.753906 -1.125 4.050781 -1.160156 4.28125 -1.234375 C 4.519531 -1.304688 4.78125 -1.421875 5.0625 -1.578125 L 5.5 -0.578125 C 5.25 -0.378906 4.925781 -0.210938 4.53125 -0.078125 C 4.144531 0.046875 3.707031 0.109375 3.21875 0.109375 Z M 3.078125 -4.859375 C 2.773438 -4.859375 2.535156 -4.742188 2.359375 -4.515625 C 2.191406 -4.285156 2.085938 -3.984375 2.046875 -3.609375 L 2.0625 -3.59375 L 4.046875 -3.59375 L 4.046875 -3.734375 C 4.046875 -4.078125 3.960938 -4.347656 3.796875 -4.546875 C 3.640625 -4.753906 3.398438 -4.859375 3.078125 -4.859375 Z M 3.078125 -4.859375 "/></g></g></g><g fill="#004aad" fill-opacity="1"><g transform="translate(102.549027, 17.78226)"><g><path d="M 0.265625 -0.96875 L 1.03125 -1.140625 L 1.03125 -4.859375 L 0.171875 -5.03125 L 0.171875 -6 L 2.546875 -6 L 2.625 -5.140625 C 2.820312 -5.453125 3.066406 -5.691406 3.359375 -5.859375 C 3.648438 -6.023438 3.976562 -6.109375 4.34375 -6.109375 C 4.945312 -6.109375 5.414062 -5.914062 5.75 -5.53125 C 6.09375 -5.15625 6.265625 -4.5625 6.265625 -3.75 L 6.265625 -1.140625 L 7.046875 -0.96875 L 7.046875 0 L 3.953125 0 L 3.953125 -0.96875 L 4.640625 -1.140625 L 4.640625 -3.75 C 4.640625 -4.144531 4.554688 -4.425781 4.390625 -4.59375 C 4.234375 -4.769531 3.988281 -4.859375 3.65625 -4.859375 C 3.445312 -4.859375 3.253906 -4.8125 3.078125 -4.71875 C 2.910156 -4.632812 2.769531 -4.515625 2.65625 -4.359375 L 2.65625 -1.140625 L 3.3125 -0.96875 L 3.3125 0 L 0.265625 0 Z M 0.265625 -0.96875 "/></g></g></g><g fill="#004aad" fill-opacity="1"><g transform="translate(109.754928, 17.78226)"><g><path d="M 2.734375 -7.46875 L 2.734375 -6 L 3.796875 -6 L 3.796875 -4.859375 L 2.734375 -4.859375 L 2.734375 -1.8125 C 2.734375 -1.570312 2.78125 -1.398438 2.875 -1.296875 C 2.976562 -1.203125 3.109375 -1.15625 3.265625 -1.15625 C 3.378906 -1.15625 3.476562 -1.160156 3.5625 -1.171875 C 3.644531 -1.179688 3.738281 -1.195312 3.84375 -1.21875 L 3.984375 -0.046875 C 3.796875 0.00390625 3.613281 0.0390625 3.4375 0.0625 C 3.257812 0.09375 3.070312 0.109375 2.875 0.109375 C 2.3125 0.109375 1.878906 -0.0390625 1.578125 -0.34375 C 1.273438 -0.644531 1.125 -1.128906 1.125 -1.796875 L 1.125 -4.859375 L 0.25 -4.859375 L 0.25 -6 L 1.125 -6 L 1.125 -7.46875 Z M 2.734375 -7.46875 "/></g></g></g><g fill="#004aad" fill-opacity="1"><g transform="translate(113.989781, 17.78226)"><g/></g></g><g fill="#004aad" fill-opacity="1"><g transform="translate(116.772368, 17.78226)"><g><path d="M 0.234375 -0.96875 L 0.796875 -1.046875 L 3.265625 -8.078125 L 4.921875 -8.078125 L 7.359375 -1.046875 L 7.9375 -0.96875 L 7.9375 0 L 5.1875 0 L 5.1875 -0.96875 L 5.75 -1.078125 L 5.390625 -2.1875 L 2.765625 -2.1875 L 2.421875 -1.078125 L 2.984375 -0.96875 L 2.984375 0 L 0.234375 0 Z M 3.15625 -3.375 L 5.015625 -3.375 L 4.09375 -6.21875 L 4.0625 -6.21875 Z M 3.15625 -3.375 "/></g></g></g><g fill="#004aad" fill-opacity="1"><g transform="translate(124.926128, 17.78226)"><g><path d="M 0.234375 -5.03125 L 0.234375 -6 L 2.578125 -6 L 2.65625 -5.296875 C 2.832031 -5.554688 3.046875 -5.753906 3.296875 -5.890625 C 3.546875 -6.035156 3.832031 -6.109375 4.15625 -6.109375 C 4.90625 -6.109375 5.484375 -5.816406 5.890625 -5.234375 C 6.296875 -4.660156 6.5 -3.898438 6.5 -2.953125 L 6.5 -2.828125 C 6.5 -1.941406 6.296875 -1.226562 5.890625 -0.6875 C 5.484375 -0.15625 4.910156 0.109375 4.171875 0.109375 C 3.859375 0.109375 3.578125 0.0507812 3.328125 -0.0625 C 3.085938 -0.175781 2.878906 -0.347656 2.703125 -0.578125 L 2.703125 1.171875 L 3.484375 1.328125 L 3.484375 2.3125 L 0.3125 2.3125 L 0.3125 1.328125 L 1.09375 1.171875 L 1.09375 -4.859375 Z M 4.890625 -2.953125 C 4.890625 -3.515625 4.796875 -3.972656 4.609375 -4.328125 C 4.421875 -4.679688 4.128906 -4.859375 3.734375 -4.859375 C 3.492188 -4.859375 3.285156 -4.804688 3.109375 -4.703125 C 2.941406 -4.597656 2.804688 -4.457031 2.703125 -4.28125 L 2.703125 -1.640625 C 2.804688 -1.472656 2.941406 -1.34375 3.109375 -1.25 C 3.285156 -1.164062 3.5 -1.125 3.75 -1.125 C 4.144531 -1.125 4.429688 -1.273438 4.609375 -1.578125 C 4.796875 -1.890625 4.890625 -2.304688 4.890625 -2.828125 Z M 4.890625 -2.953125 "/></g></g></g><g fill="#004aad" fill-opacity="1"><g transform="translate(131.79945, 17.78226)"><g><path d="M 0.234375 -5.03125 L 0.234375 -6 L 2.578125 -6 L 2.65625 -5.296875 C 2.832031 -5.554688 3.046875 -5.753906 3.296875 -5.890625 C 3.546875 -6.035156 3.832031 -6.109375 4.15625 -6.109375 C 4.90625 -6.109375 5.484375 -5.816406 5.890625 -5.234375 C 6.296875 -4.660156 6.5 -3.898438 6.5 -2.953125 L 6.5 -2.828125 C 6.5 -1.941406 6.296875 -1.226562 5.890625 -0.6875 C 5.484375 -0.15625 4.910156 0.109375 4.171875 0.109375 C 3.859375 0.109375 3.578125 0.0507812 3.328125 -0.0625 C 3.085938 -0.175781 2.878906 -0.347656 2.703125 -0.578125 L 2.703125 1.171875 L 3.484375 1.328125 L 3.484375 2.3125 L 0.3125 2.3125 L 0.3125 1.328125 L 1.09375 1.171875 L 1.09375 -4.859375 Z M 4.890625 -2.953125 C 4.890625 -3.515625 4.796875 -3.972656 4.609375 -4.328125 C 4.421875 -4.679688 4.128906 -4.859375 3.734375 -4.859375 C 3.492188 -4.859375 3.285156 -4.804688 3.109375 -4.703125 C 2.941406 -4.597656 2.804688 -4.457031 2.703125 -4.28125 L 2.703125 -1.640625 C 2.804688 -1.472656 2.941406 -1.34375 3.109375 -1.25 C 3.285156 -1.164062 3.5 -1.125 3.75 -1.125 C 4.144531 -1.125 4.429688 -1.273438 4.609375 -1.578125 C 4.796875 -1.890625 4.890625 -2.304688 4.890625 -2.828125 Z M 4.890625 -2.953125 "/></g></g></g></svg>